HIERARCHY
ROOT newVegas:Hips
{
	OFFSET 0.000000 96.479958 0.000000
	CHANNELS 6 Xposition Yposition Zposition Xrotation Yrotation Zrotation
	JOINT newVegas:Pelvis
	{
		OFFSET 0.000000 0.000000 0.000000
		CHANNELS 3 Xrotation Yrotation Zrotation
		JOINT newVegas:LeftUpLeg
		{
			OFFSET 18.735201 -5.666702 -4.541200
			CHANNELS 3 Xrotation Yrotation Zrotation
			JOINT newVegas:LeftLeg
			{
				OFFSET -0.021200 -31.938179 0.493100
				CHANNELS 3 Xrotation Yrotation Zrotation
				JOINT newVegas:LeftFoot
				{
					OFFSET 0.021200 -31.938179 -4.336299
					CHANNELS 3 Xrotation Yrotation Zrotation
					JOINT newVegas:LeftToeBase
					{
						OFFSET 0.943001 -26.722000 15.023500
						CHANNELS 3 Xrotation Yrotation Zrotation
						End Site
						{
							OFFSET 0.000000 30.670183 0.000000
						}
					}
				}
				JOINT newVegas:Left_PantLeg
				{
					OFFSET 0.663870 -9.044666 -1.108900
					CHANNELS 3 Xrotation Yrotation Zrotation
					End Site
					{
						OFFSET 1.415995 20.635357 0.000000
					}
				}
			}
		}
		JOINT newVegas:RightUpLeg
		{
			OFFSET -18.735201 -5.666702 -4.541200
			CHANNELS 3 Xrotation Yrotation Zrotation
			JOINT newVegas:RightLeg
			{
				OFFSET 0.018946 -31.938133 0.493100
				CHANNELS 3 Xrotation Yrotation Zrotation
				JOINT newVegas:RightFoot
				{
					OFFSET -0.018946 -31.938126 -4.336299
					CHANNELS 3 Xrotation Yrotation Zrotation
					JOINT newVegas:RightToeBase
					{
						OFFSET -0.943001 -26.722004 15.023500
						CHANNELS 3 Xrotation Yrotation Zrotation
						End Site
						{
							OFFSET 0.000000 30.670187 0.000000
						}
					}
				}
				JOINT newVegas:Right_PantLeg
				{
					OFFSET -0.661674 -9.044716 -1.108900
					CHANNELS 3 Xrotation Yrotation Zrotation
					End Site
					{
						OFFSET -1.415958 20.635269 0.000000
					}
				}
			}
		}
	}
	JOINT newVegas:Spine
	{
		OFFSET 0.000000 10.199997 -0.299500
		CHANNELS 3 Xrotation Yrotation Zrotation
		JOINT newVegas:Spine1
		{
			OFFSET 0.000000 11.900002 -1.516600
			CHANNELS 3 Xrotation Yrotation Zrotation
			JOINT newVegas:Spine2
			{
				OFFSET 0.000000 13.600006 -2.842500
				CHANNELS 3 Xrotation Yrotation Zrotation
				JOINT newVegas:Neck
				{
					OFFSET 0.000000 9.624100 -2.890100
					CHANNELS 3 Xrotation Yrotation Zrotation
					JOINT newVegas:Head
					{
						OFFSET 0.000000 14.068802 -1.351900
						CHANNELS 3 Xrotation Yrotation Zrotation
						JOINT newVegas:Hair_Back
						{
							OFFSET 0.000000 3.231903 -17.524799
							CHANNELS 3 Xrotation Yrotation Zrotation
							End Site
							{
								OFFSET 0.000000 19.849884 0.000000
							}
						}
						JOINT newVegas:Hair_Front
						{
							OFFSET 0.000000 31.260406 4.573800
							CHANNELS 3 Xrotation Yrotation Zrotation
							JOINT newVegas:Hair_Front1
							{
								OFFSET 0.000000 2.284103 11.993300
								CHANNELS 3 Xrotation Yrotation Zrotation
								JOINT newVegas:Hair_Front2
								{
									OFFSET 0.000000 2.284103 11.993300
									CHANNELS 3 Xrotation Yrotation Zrotation
									End Site
									{
										OFFSET 0.000000 12.208862 0.000000
									}
								}
							}
						}
						JOINT newVegas:Jowel
						{
							OFFSET 0.000000 -7.458206 6.864100
							CHANNELS 3 Xrotation Yrotation Zrotation
							End Site
							{
								OFFSET 0.000000 19.849884 0.000000
							}
						}
					}
				}
				JOINT newVegas:LeftShoulder
				{
					OFFSET 15.263000 10.923401 -0.547700
					CHANNELS 3 Xrotation Yrotation Zrotation
					JOINT newVegas:LeftArm
					{
						OFFSET 25.438599 -2.830597 -13.032500
						CHANNELS 3 Xrotation Yrotation Zrotation
						JOINT newVegas:LeftForeArm
						{
							OFFSET 29.960503 0.000000 0.000000
							CHANNELS 3 Xrotation Yrotation Zrotation
							JOINT newVegas:LeftHand
							{
								OFFSET 27.849251 0.000000 0.000000
								CHANNELS 3 Xrotation Yrotation Zrotation
								JOINT newVegas:LeftHandThumb1
								{
									OFFSET 4.487587 -3.305161 6.305391
									CHANNELS 3 Xrotation Yrotation Zrotation
									JOINT newVegas:LeftHandThumb2
									{
										OFFSET 5.480453 -3.164139 3.164143
										CHANNELS 3 Xrotation Yrotation Zrotation
										JOINT newVegas:LeftHandThumb3
										{
											OFFSET 5.159721 -2.978973 2.978967
											CHANNELS 3 Xrotation Yrotation Zrotation
											End Site
											{
												OFFSET 2.494507 5.926697 1.738678
											}
										}
									}
								}
								JOINT newVegas:LeftHandIndex1
								{
									OFFSET 18.578728 -0.527832 5.208049
									CHANNELS 3 Xrotation Yrotation Zrotation
									JOINT newVegas:LeftHandIndex2
									{
										OFFSET 3.192009 0.000000 0.000000
										CHANNELS 3 Xrotation Yrotation Zrotation
										JOINT newVegas:LeftHandIndex3
										{
											OFFSET 3.835129 0.000000 0.000000
											CHANNELS 3 Xrotation Yrotation Zrotation
											End Site
											{
												OFFSET -0.034599 3.816971 0.371180
											}
										}
									}
								}
								JOINT newVegas:LeftHandMiddle1
								{
									OFFSET 18.476105 0.000000 0.000000
									CHANNELS 3 Xrotation Yrotation Zrotation
									JOINT newVegas:LeftHandMiddle2
									{
										OFFSET 3.324875 0.000000 0.000000
										CHANNELS 3 Xrotation Yrotation Zrotation
										JOINT newVegas:LeftHandMiddle3
										{
											OFFSET 4.596550 0.000000 0.000000
											CHANNELS 3 Xrotation Yrotation Zrotation
											End Site
											{
												OFFSET 0.057701 4.578827 0.399218
											}
										}
									}
								}
								JOINT newVegas:LeftHandRing1
								{
									OFFSET 17.732719 0.121887 -4.201567
									CHANNELS 3 Xrotation Yrotation Zrotation
									JOINT newVegas:LeftHandRing2
									{
										OFFSET 2.733170 0.000000 0.000000
										CHANNELS 3 Xrotation Yrotation Zrotation
										JOINT newVegas:LeftHandRing3
										{
											OFFSET 3.178268 0.000000 0.000000
											CHANNELS 3 Xrotation Yrotation Zrotation
											End Site
											{
												OFFSET 0.119102 3.170624 0.185394
											}
										}
									}
								}
								JOINT newVegas:LeftHandPinky1
								{
									OFFSET 15.989624 -0.606689 -7.535461
									CHANNELS 3 Xrotation Yrotation Zrotation
									JOINT newVegas:LeftHandPinky2
									{
										OFFSET 2.538986 0.000000 0.000000
										CHANNELS 3 Xrotation Yrotation Zrotation
										JOINT newVegas:LeftHandPinky3
										{
											OFFSET 2.593102 0.000000 0.000000
											CHANNELS 3 Xrotation Yrotation Zrotation
											End Site
											{
												OFFSET -0.150902 2.584198 0.152708
											}
										}
									}
								}
							}
							JOINT newVegas:Left_Sleeve
							{
								OFFSET 0.267448 -0.649796 0.577675
								CHANNELS 3 Xrotation Yrotation Zrotation
								End Site
								{
									OFFSET 0.000000 15.991241 0.000000
								}
							}
							JOINT newVegas:Left_CapeC
							{
								OFFSET 15.715958 -8.608795 -6.935905
								CHANNELS 3 Xrotation Yrotation Zrotation
								JOINT newVegas:Left_CapeC1
								{
									OFFSET 0.000000 -8.688499 0.000000
									CHANNELS 3 Xrotation Yrotation Zrotation
									End Site
									{
										OFFSET 0.000000 8.688499 0.000000
									}
								}
							}
						}
						JOINT newVegas:Left_CapeB
						{
							OFFSET 26.118385 -8.608795 -7.079235
							CHANNELS 3 Xrotation Yrotation Zrotation
							JOINT newVegas:Left_CapeB1
							{
								OFFSET 0.000000 -8.688499 0.000000
								CHANNELS 3 Xrotation Yrotation Zrotation
								End Site
								{
									OFFSET 0.000000 8.688499 0.000000
								}
							}
						}
						JOINT newVegas:Left_CapeA
						{
							OFFSET 5.115639 -8.608795 -10.395809
							CHANNELS 3 Xrotation Yrotation Zrotation
							JOINT newVegas:Left_CapeA1
							{
								OFFSET 0.000000 -8.688499 0.000000
								CHANNELS 3 Xrotation Yrotation Zrotation
								End Site
								{
									OFFSET 0.000000 8.688499 0.000000
								}
							}
						}
					}
				}
				JOINT newVegas:RightShoulder
				{
					OFFSET -15.263000 10.923401 -0.547700
					CHANNELS 3 Xrotation Yrotation Zrotation
					JOINT newVegas:RightArm
					{
						OFFSET -25.438599 -2.830597 -13.032500
						CHANNELS 3 Xrotation Yrotation Zrotation
						JOINT newVegas:RightForeArm
						{
							OFFSET -29.960503 0.000000 0.000000
							CHANNELS 3 Xrotation Yrotation Zrotation
							JOINT newVegas:RightHand
							{
								OFFSET -27.849251 0.000000 0.000000
								CHANNELS 3 Xrotation Yrotation Zrotation
								JOINT newVegas:RightHandThumb1
								{
									OFFSET -4.487587 -3.305161 6.305391
									CHANNELS 3 Xrotation Yrotation Zrotation
									JOINT newVegas:RightHandThumb2
									{
										OFFSET -5.480453 -3.164139 3.164143
										CHANNELS 3 Xrotation Yrotation Zrotation
										JOINT newVegas:RightHandThumb3
										{
											OFFSET -5.159721 -2.978973 2.978967
											CHANNELS 3 Xrotation Yrotation Zrotation
											End Site
											{
												OFFSET -2.494507 5.926697 1.738678
											}
										}
									}
								}
								JOINT newVegas:RightHandIndex1
								{
									OFFSET -18.578728 -0.527832 5.208049
									CHANNELS 3 Xrotation Yrotation Zrotation
									JOINT newVegas:RightHandIndex2
									{
										OFFSET -3.192009 0.000000 0.000000
										CHANNELS 3 Xrotation Yrotation Zrotation
										JOINT newVegas:RightHandIndex3
										{
											OFFSET -3.835129 0.000000 0.000000
											CHANNELS 3 Xrotation Yrotation Zrotation
											End Site
											{
												OFFSET 0.034599 3.816971 0.371180
											}
										}
									}
								}
								JOINT newVegas:RightHandMiddle1
								{
									OFFSET -18.476105 0.000000 0.000000
									CHANNELS 3 Xrotation Yrotation Zrotation
									JOINT newVegas:RightHandMiddle2
									{
										OFFSET -3.324875 0.000000 0.000000
										CHANNELS 3 Xrotation Yrotation Zrotation
										JOINT newVegas:RightHandMiddle3
										{
											OFFSET -4.596550 0.000000 0.000000
											CHANNELS 3 Xrotation Yrotation Zrotation
											End Site
											{
												OFFSET -0.057701 4.578827 0.399218
											}
										}
									}
								}
								JOINT newVegas:RightHandRing1
								{
									OFFSET -17.732719 0.121887 -4.201567
									CHANNELS 3 Xrotation Yrotation Zrotation
									JOINT newVegas:RightHandRing2
									{
										OFFSET -2.733170 0.000000 0.000000
										CHANNELS 3 Xrotation Yrotation Zrotation
										JOINT newVegas:RightHandRing3
										{
											OFFSET -3.178268 0.000000 0.000000
											CHANNELS 3 Xrotation Yrotation Zrotation
											End Site
											{
												OFFSET -0.119102 3.170624 0.185394
											}
										}
									}
								}
								JOINT newVegas:RightHandPinky1
								{
									OFFSET -15.989624 -0.606689 -7.535461
									CHANNELS 3 Xrotation Yrotation Zrotation
									JOINT newVegas:RightHandPinky2
									{
										OFFSET -2.538986 0.000000 0.000000
										CHANNELS 3 Xrotation Yrotation Zrotation
										JOINT newVegas:RightHandPinky3
										{
											OFFSET -2.593102 0.000000 0.000000
											CHANNELS 3 Xrotation Yrotation Zrotation
											End Site
											{
												OFFSET 0.150902 2.584198 0.152708
											}
										}
									}
								}
							}
							JOINT newVegas:Right_CapeC
							{
								OFFSET -15.715958 -8.608795 -6.935905
								CHANNELS 3 Xrotation Yrotation Zrotation
								JOINT newVegas:Right_CapeC1
								{
									OFFSET 0.000000 -8.688499 0.000000
									CHANNELS 3 Xrotation Yrotation Zrotation
									End Site
									{
										OFFSET 0.000000 8.688499 0.000000
									}
								}
							}
							JOINT newVegas:Right_Sleeve
							{
								OFFSET -0.267448 -0.649994 0.577675
								CHANNELS 3 Xrotation Yrotation Zrotation
								End Site
								{
									OFFSET 0.000000 15.991302 0.000000
								}
							}
						}
						JOINT newVegas:Right_CapeA
						{
							OFFSET -5.115540 -8.608795 -10.395824
							CHANNELS 3 Xrotation Yrotation Zrotation
							JOINT newVegas:Right_CapeA1
							{
								OFFSET 0.000000 -8.688499 0.000000
								CHANNELS 3 Xrotation Yrotation Zrotation
								End Site
								{
									OFFSET 0.000000 8.688499 0.000000
								}
							}
						}
						JOINT newVegas:Right_CapeB
						{
							OFFSET -26.118187 -8.608795 -7.079266
							CHANNELS 3 Xrotation Yrotation Zrotation
							JOINT newVegas:Right_CapeB1
							{
								OFFSET 0.000000 -8.688499 0.000000
								CHANNELS 3 Xrotation Yrotation Zrotation
								End Site
								{
									OFFSET 0.000000 8.688499 0.000000
								}
							}
						}
					}
				}
				JOINT newVegas:Left_Collar
				{
					OFFSET 18.625099 8.655502 8.828100
					CHANNELS 3 Xrotation Yrotation Zrotation
					JOINT newVegas:Left_Collar1
					{
						OFFSET 14.783401 10.540405 -1.259500
						CHANNELS 3 Xrotation Yrotation Zrotation
						End Site
						{
							OFFSET 0.000000 18.199875 0.000000
						}
					}
				}
				JOINT newVegas:Collar_Back
				{
					OFFSET 0.000000 15.630707 -20.132601
					CHANNELS 3 Xrotation Yrotation Zrotation
					End Site
					{
						OFFSET 0.000000 22.523010 0.000000
					}
				}
				JOINT newVegas:Left_Peck
				{
					OFFSET 17.239599 -5.132599 25.482599
					CHANNELS 3 Xrotation Yrotation Zrotation
					End Site
					{
						OFFSET 0.000000 22.523010 0.000000
					}
				}
				JOINT newVegas:Right_Peck
				{
					OFFSET -17.239599 -5.132202 25.482599
					CHANNELS 3 Xrotation Yrotation Zrotation
					End Site
					{
						OFFSET 0.000000 22.523010 0.000000
					}
				}
				JOINT newVegas:Right_Collar
				{
					OFFSET -18.625099 8.655792 8.828100
					CHANNELS 3 Xrotation Yrotation Zrotation
					JOINT newVegas:Right_Collar1
					{
						OFFSET -14.783401 10.539993 -1.259500
						CHANNELS 3 Xrotation Yrotation Zrotation
						End Site
						{
							OFFSET 0.000000 18.199631 0.000000
						}
					}
				}
			}
		}
		JOINT newVegas:Belly
		{
			OFFSET 0.000000 -6.540398 9.014299
			CHANNELS 3 Xrotation Yrotation Zrotation
			End Site
			{
				OFFSET 0.000000 11.566666 0.000000
			}
		}
	}
	JOINT newVegas:ElvisFacialAnim_Joint
	{
		OFFSET 1.000000 -95.330101 -8.825800
		CHANNELS 3 Xrotation Yrotation Zrotation
		End Site
		{
			OFFSET 0.000000 35.315800 0.000000
		}
	}
}
MOTION
Frames: 4
Frame Time: 0.016667
-0.159423 93.558533 3.938099 -7.178097 -4.154054 2.856510 0.000000 0.000000 0.000000 -12.439731 10.999865 7.512226 16.149036 7.108092 1.443932 4.729786 0.319784 -7.597704 0.000000 -0.000000 -0.000000 -0.000000 -0.000001 -0.000000 6.936532 -15.860568 -5.973804 22.412009 -8.954766 -3.397381 -21.561295 -6.562344 9.357460 0.000000 -0.000002 -0.000000 -0.000001 0.000001 -0.000001 5.267978 2.023183 -1.947488 1.478230 0.730364 -0.788770 1.440798 0.721971 -0.741220 0.955972 0.871913 0.354723 0.955933 0.871913 0.354723 0.000000 -0.000000 -0.000000 0.955992 0.871915 0.354721 0.955914 0.871916 0.354723 0.000000 -0.000000 -0.000000 0.000000 -0.000000 -0.000000 -0.595444 -16.332002 -20.041822 11.139998 0.583281 -33.762393 -0.003444 -89.545535 -0.003270 -131.220829 -7.501372 10.656091 -12.800131 -17.470126 4.121646 1.000150 0.731316 -1.438318 0.000002 -0.000002 -0.000003 -3.532547 4.254379 -63.954579 3.402098 5.315506 -65.218908 0.000000 -0.000001 0.000000 2.434370 7.296029 -69.364082 3.297862 5.266370 -64.088662 -0.000000 -0.000001 0.000001 4.717036 8.075501 -77.582281 2.056305 4.456867 -49.517652 0.000001 -0.000001 0.000002 6.410349 8.363772 -80.414576 1.722716 4.149874 -45.074406 0.000001 -0.000003 -0.000002 -0.000003 -0.000000 -0.000000 -0.000003 -0.000000 -0.000000 -0.000004 -0.000001 0.000000 -0.000001 -0.000002 -0.000000 -0.000001 -0.000002 -0.000003 -0.000001 -0.000002 -0.000000 -0.000002 -0.000001 -0.000000 0.754162 18.436588 11.539477 10.691747 23.557106 38.362198 0.000229 97.963866 -0.000216 -34.546899 -20.180666 22.179149 20.470543 7.475581 18.843589 4.151697 -12.160918 -33.848003 0.000000 -0.000002 0.000003 -0.887084 1.427988 12.684531 1.917417 -3.767460 53.934319 -0.000000 -0.000001 0.000002 0.770890 -5.199579 54.618827 5.563874 -4.568228 101.238587 0.000000 -0.000003 -0.000000 6.934479 -8.544258 63.908769 2.909302 -4.317390 67.934721 -0.000003 0.000002 0.000001 8.373435 -8.171777 73.989957 2.173656 -3.940934 57.745384 -0.000002 -0.000000 -0.000000 -0.000002 0.000000 0.000001 -0.000000 0.000002 0.000005 -0.000002 -0.000000 0.000001 0.000002 0.000003 -0.000000 0.000003 0.000003 0.000001 0.000002 0.000003 -0.000000 0.000003 0.000002 0.000003 -0.000000 -0.000000 0.000000 -0.000000 -0.000000 0.000000 -0.000000 -0.000000 0.000000 -0.000000 -0.000000 0.000000 -0.000000 -0.000000 0.000000 -0.000000 -0.000000 0.000000 -0.000000 -0.000000 0.000000 -0.000000 -0.000000 -0.000000 0.000000 0.000000 0.000000 
-0.020717 93.436295 3.899178 -7.095749 -4.313395 2.894343 0.000000 0.000000 -0.000000 -12.977133 10.952515 7.423615 17.116849 6.910450 1.457813 4.237524 0.731197 -7.574121 -0.000000 -0.000000 0.000000 0.000000 -0.000002 -0.000000 6.202557 -15.721475 -6.334421 23.442357 -8.846825 -3.407125 -21.940697 -6.621942 9.508259 -0.000000 -0.000002 -0.000000 -0.000000 -0.000000 -0.000000 5.267307 1.952830 -1.977310 1.478230 0.635007 -0.779718 1.440799 0.631945 -0.712957 0.944504 0.866503 0.305723 0.944502 0.866503 0.305723 0.000000 0.000000 -0.000000 0.944505 0.866503 0.305724 0.944504 0.866504 0.305723 0.000000 -0.000000 -0.000000 0.000000 0.000000 -0.000000 -0.595444 -16.332002 -20.041821 11.399586 0.974253 -33.753921 0.009603 -89.758596 0.009195 -131.360015 -7.634382 10.579087 -12.800127 -17.470125 4.121646 1.000147 0.731317 -1.438315 0.000001 -0.000006 -0.000003 -3.532547 4.254378 -63.954579 3.402098 5.315506 -65.218908 0.000000 0.000000 -0.000001 2.434369 7.296026 -69.364082 3.297862 5.266372 -64.088655 -0.000003 0.000000 -0.000001 4.717036 8.075500 -77.582288 2.056308 4.456865 -49.517649 0.000000 -0.000001 0.000001 6.410354 8.363766 -80.414576 1.722713 4.149874 -45.074399 -0.000002 0.000002 -0.000001 0.000001 -0.000001 -0.000001 0.000001 -0.000001 -0.000001 0.000000 -0.000001 -0.000001 -0.000001 -0.000001 -0.000001 0.000000 -0.000002 -0.000004 -0.000001 -0.000001 -0.000001 -0.000001 -0.000001 -0.000001 0.751041 18.451092 11.540466 10.590265 23.808714 38.571929 0.000512 97.773133 -0.000492 -34.403021 -20.303933 22.406528 20.470540 7.475580 18.843589 4.151695 -12.160918 -33.848000 -0.000002 0.000000 0.000001 -0.887082 1.427987 12.684530 1.917417 -3.767464 53.934322 -0.000002 -0.000001 0.000003 0.770891 -5.199581 54.618827 5.563873 -4.568228 101.238594 0.000002 -0.000003 -0.000000 6.934481 -8.544258 63.908769 2.909302 -4.317389 67.934728 0.000001 -0.000001 0.000000 8.373431 -8.171779 73.989957 2.173660 -3.940935 57.745384 0.000002 0.000001 0.000001 0.000001 -0.000001 0.000003 0.000002 0.000002 0.000003 0.000001 -0.000001 0.000001 0.000000 -0.000001 -0.000002 0.000001 -0.000001 -0.000002 0.000000 -0.000001 -0.000002 0.000001 -0.000001 -0.000000 -0.000000 -0.000000 -0.000000 -0.000000 -0.000000 -0.000000 -0.000000 -0.000000 -0.000000 -0.000000 -0.000000 -0.000000 -0.000000 -0.000000 -0.000000 -0.000000 -0.000000 -0.000000 -0.000000 -0.000000 -0.000000 0.000000 0.000000 -0.000000 0.000000 0.000000 -0.000000 
0.102816 93.323204 3.856671 -7.012840 -4.467633 2.935455 -0.000000 -0.000001 -0.000000 -13.453972 10.916147 7.331766 17.949426 6.688814 1.471188 3.820662 1.156837 -7.548939 -0.000000 -0.000000 -0.000000 -0.000000 -0.000002 -0.000000 5.511796 -15.584313 -6.669309 24.390339 -8.743888 -3.414327 -22.284416 -6.674223 9.638338 -0.000000 -0.000003 0.000000 0.000002 -0.000000 -0.000000 5.266761 1.889314 -2.008405 1.478231 0.545823 -0.771255 1.440799 0.547799 -0.686543 0.933949 0.861584 0.258522 0.933948 0.861584 0.258522 -0.000000 0.000000 -0.000000 0.933949 0.861584 0.258522 0.934089 0.861583 0.258519 -0.000001 -0.000000 -0.000000 -0.000000 0.000000 0.000000 -0.595444 -16.332000 -20.041822 11.673889 1.386651 -33.751103 -0.030798 -89.979608 -0.039879 -131.507192 -7.772103 10.489909 -12.800131 -17.470125 4.121646 1.000150 0.731317 -1.438316 0.000003 -0.000002 -0.000003 -3.532548 4.254381 -63.954579 3.402099 5.315503 -65.218908 0.000001 -0.000001 0.000001 2.434370 7.296029 -69.364082 3.297862 5.266370 -64.088655 0.000000 0.000001 -0.000002 4.717035 8.075499 -77.582288 2.056310 4.456867 -49.517649 -0.000003 0.000003 0.000001 6.410353 8.363770 -80.414576 1.722717 4.149874 -45.074406 0.000001 -0.000002 0.000000 -0.000001 0.000000 0.000001 -0.000001 0.000000 0.000001 -0.000002 -0.000000 0.000001 -0.000001 0.000001 -0.000001 -0.000000 0.000001 -0.000003 -0.000001 0.000001 -0.000001 -0.000002 0.000002 -0.000001 0.748015 18.465150 11.541424 10.484203 24.073579 38.792940 0.000518 97.573781 -0.000479 -34.246852 -20.433747 22.645893 20.470541 7.475584 18.843587 4.151696 -12.160915 -33.848003 -0.000002 -0.000000 0.000003 -0.887082 1.427989 12.684531 1.917417 -3.767458 53.934319 0.000001 0.000000 0.000000 0.770890 -5.199575 54.618823 5.563874 -4.568225 101.238587 0.000001 -0.000001 0.000001 6.934476 -8.544257 63.908769 2.909299 -4.317392 67.934728 -0.000001 -0.000001 -0.000002 8.373430 -8.171779 73.989950 2.173665 -3.940934 57.745384 -0.000002 -0.000002 -0.000001 -0.000000 0.000001 0.000004 -0.000000 -0.000002 0.000000 -0.000000 0.000001 0.000002 0.000002 -0.000002 -0.000003 0.000002 -0.000002 -0.000003 0.000002 -0.000002 -0.000003 0.000002 -0.000002 -0.000002 0.000000 0.000000 -0.000000 0.000000 0.000000 -0.000000 0.000000 0.000000 -0.000000 0.000000 0.000000 -0.000000 0.000000 0.000000 -0.000000 0.000000 0.000000 -0.000000 0.000000 0.000000 -0.000000 -0.000000 -0.000000 0.000000 -0.000000 -0.000001 -0.000000 
0.218688 93.215347 3.812337 -6.929570 -4.619307 2.978409 -0.000001 -0.000001 -0.000000 -13.893509 10.886962 7.237499 18.700163 6.447968 1.486652 3.448858 1.596655 -7.523937 -0.000000 0.000002 -0.000000 -0.000000 -0.000000 -0.000000 4.849835 -15.448179 -6.988841 25.282913 -8.641872 -3.419971 -22.603244 -6.721919 9.756077 0.000000 -0.000003 0.000000 0.000001 -0.000002 -0.000000 5.266285 1.829228 -2.040222 1.478230 0.459727 -0.763087 1.440798 0.466592 -0.661054 0.923887 0.856875 0.212183 0.923846 0.856875 0.212183 -0.000000 -0.000000 -0.000000 0.923834 0.856878 0.212183 0.923835 0.856876 0.212183 -0.000000 0.000000 -0.000000 -0.000000 -0.000000 -0.000000 -0.595444 -16.332000 -20.041819 11.962419 1.823212 -33.756147 0.000226 -90.210318 0.002035 -131.660694 -7.915230 10.391279 -12.800129 -17.470126 4.121649 1.000147 0.731317 -1.438314 -0.000000 0.000000 -0.000006 -3.532547 4.254378 -63.954579 3.402098 5.315506 -65.218901 0.000001 -0.000001 0.000001 2.434371 7.296029 -69.364082 3.297864 5.266370 -64.088662 -0.000002 -0.000000 0.000000 4.717036 8.075496 -77.582281 2.056307 4.456869 -49.517652 -0.000004 0.000001 0.000001 6.410351 8.363772 -80.414583 1.722711 4.149870 -45.074409 -0.000000 0.000000 0.000001 0.000001 0.000000 -0.000002 0.000001 0.000000 -0.000002 0.000001 -0.000000 -0.000002 0.000001 0.000000 -0.000002 0.000002 -0.000000 -0.000004 0.000001 0.000000 -0.000002 0.000001 0.000000 -0.000002 0.744927 18.479492 11.542405 10.372843 24.349276 39.024381 -0.000596 97.366812 0.000579 -34.080810 -20.568806 22.896742 20.470540 7.475578 18.843589 4.151697 -12.160916 -33.848003 0.000001 -0.000001 -0.000000 -0.887081 1.427988 12.684530 1.917417 -3.767461 53.934319 -0.000002 -0.000000 0.000002 0.770891 -5.199580 54.618827 5.563872 -4.568226 101.238587 0.000000 0.000000 0.000005 6.934480 -8.544259 63.908762 2.909299 -4.317391 67.934728 0.000002 0.000001 0.000001 8.373429 -8.171784 73.989950 2.173656 -3.940931 57.745384 0.000002 0.000001 0.000002 0.000002 -0.000001 -0.000001 0.000002 0.000000 -0.000000 0.000002 -0.000001 -0.000001 0.000001 0.000001 0.000003 0.000002 0.000001 0.000002 0.000001 0.000001 0.000003 0.000002 0.000001 0.000003 -0.000000 -0.000000 -0.000000 -0.000000 -0.000000 -0.000000 -0.000000 -0.000000 -0.000000 -0.000000 -0.000000 -0.000000 -0.000000 -0.000000 -0.000000 -0.000000 -0.000000 -0.000000 -0.000000 -0.000000 -0.000000 0.000000 -0.000000 0.000000 -0.000001 -0.000001 -0.000000 
